PathFileType	4	(X/Y/Z)	C:\Users\italobelli\Desktop\GitHub\PTbot_officialCBL\Personal_Results\ABD03_noisy2.trc
DataRate	CameraRate	NumFrames	NumMarkers	Units	OrigDataRate	OrigDataStartFrame	OrigNumFrames
106.533333	106.533333	38	9	m	106.533333	1	800
Frame#	Time		gu		centelbow		EpL		centpxt8		centijc7		ij		ts		aa		ai
			X1	Y1	Z1	X2	Y2	Z2	X3	Y3	Z3	X4	Y4	Z4	X5	Y5	Z5	X6	Y6	Z6	X7	Y7	Z7	X8	Y8	Z8	X9	Y9	Z9

1	0	-0.1013	-0.003018	0.16378	-0.1239	-0.24885	0.19235	-0.12779	-0.24088	0.22334	-0.046816	-0.15316	-0.008669	-0.046816	0.031938	-0.008669	0	0	0	-0.13066	0.028246	0.036677	-0.13125	0.033387	0.15583	-0.14537	-0.083868	0.046657
2	0.0093867	-0.10138	-0.003149	0.16369	-0.12394	-0.24952	0.19184	-0.12792	-0.24155	0.22291	-0.046816	-0.15316	-0.008669	-0.046816	0.031938	-0.008669	0	0	0	-0.13066	0.028337	0.036628	-0.13135	0.033297	0.15582	-0.14538	-0.083826	0.04642
3	0.018773	-0.10145	-0.0032755	0.1636	-0.12398	-0.25016	0.19137	-0.12805	-0.24219	0.22251	-0.046816	-0.15316	-0.008669	-0.046816	0.031938	-0.008669	0	0	0	-0.13065	0.028426	0.036576	-0.13145	0.033209	0.15581	-0.14538	-0.083787	0.046184
4	0.02816	-0.10153	-0.0033971	0.16351	-0.12402	-0.25078	0.19093	-0.1282	-0.24281	0.22213	-0.046816	-0.15316	-0.008669	-0.046816	0.031938	-0.008669	0	0	0	-0.13065	0.028513	0.036521	-0.13155	0.033124	0.15579	-0.14538	-0.083749	0.045951
5	0.037547	-0.10161	-0.0035139	0.16341	-0.12407	-0.25138	0.19052	-0.12835	-0.2434	0.22178	-0.046816	-0.15316	-0.008669	-0.046816	0.031938	-0.008669	0	0	0	-0.13064	0.028597	0.036464	-0.13165	0.033041	0.15577	-0.14537	-0.083714	0.04572
6	0.046934	-0.10168	-0.0036256	0.16332	-0.12413	-0.25196	0.19014	-0.12851	-0.24396	0.22146	-0.046816	-0.15316	-0.008669	-0.046816	0.031938	-0.008669	0	0	0	-0.13063	0.028678	0.036404	-0.13174	0.032962	0.15575	-0.14536	-0.08368	0.045492
7	0.05632	-0.10176	-0.0037322	0.16321	-0.12419	-0.25251	0.18979	-0.12867	-0.24449	0.22116	-0.046816	-0.15316	-0.008669	-0.046816	0.031938	-0.008669	0	0	0	-0.13061	0.028757	0.036341	-0.13184	0.032885	0.15572	-0.14534	-0.083649	0.045267
8	0.065707	-0.10184	-0.0038335	0.16311	-0.12425	-0.25303	0.18947	-0.12884	-0.24499	0.22089	-0.046816	-0.15316	-0.008669	-0.046816	0.031938	-0.008669	0	0	0	-0.1306	0.028833	0.036277	-0.13194	0.032811	0.15568	-0.14532	-0.08362	0.045045
9	0.075094	-0.10192	-0.0039294	0.16301	-0.12432	-0.25353	0.18918	-0.12902	-0.24547	0.22065	-0.046816	-0.15316	-0.008669	-0.046816	0.031938	-0.008669	0	0	0	-0.13058	0.028906	0.03621	-0.13204	0.03274	0.15564	-0.1453	-0.083593	0.044827
10	0.084481	-0.10199	-0.0040197	0.1629	-0.1244	-0.25401	0.18893	-0.12921	-0.24591	0.22043	-0.046816	-0.15316	-0.008669	-0.046816	0.031938	-0.008669	0	0	0	-0.13056	0.028976	0.03614	-0.13214	0.032672	0.1556	-0.14527	-0.083568	0.044613
11	0.093867	-0.10207	-0.0041044	0.16279	-0.12448	-0.25446	0.18871	-0.1294	-0.24632	0.22025	-0.046816	-0.15316	-0.008669	-0.046816	0.031938	-0.008669	0	0	0	-0.13054	0.029044	0.036069	-0.13224	0.032607	0.15556	-0.14523	-0.083545	0.044402
12	0.10325	-0.10215	-0.0041833	0.16268	-0.12456	-0.25487	0.18852	-0.1296	-0.2467	0.22009	-0.046816	-0.15316	-0.008669	-0.046816	0.031938	-0.008669	0	0	0	-0.13052	0.029107	0.035995	-0.13234	0.032546	0.1555	-0.1452	-0.083525	0.044195
13	0.11264	-0.10223	-0.0042562	0.16257	-0.12465	-0.25526	0.18836	-0.1298	-0.24705	0.21996	-0.046816	-0.15316	-0.008669	-0.046816	0.031938	-0.008669	0	0	0	-0.13049	0.029168	0.035919	-0.13244	0.032488	0.15545	-0.14516	-0.083506	0.043993
14	0.12203	-0.1023	-0.0043231	0.16245	-0.12474	-0.25562	0.18824	-0.13001	-0.24737	0.21985	-0.046816	-0.15316	-0.008669	-0.046816	0.031938	-0.008669	0	0	0	-0.13047	0.029225	0.035841	-0.13254	0.032433	0.15539	-0.14511	-0.08349	0.043796
15	0.13141	-0.10238	-0.0043838	0.16233	-0.12484	-0.25595	0.18815	-0.13023	-0.24765	0.21978	-0.046816	-0.15316	-0.008669	-0.046816	0.031938	-0.008669	0	0	0	-0.13044	0.029279	0.035761	-0.13264	0.032383	0.15533	-0.14506	-0.083476	0.043603
16	0.1408	-0.10245	-0.0044382	0.16221	-0.12494	-0.25625	0.18809	-0.13045	-0.24789	0.21973	-0.046816	-0.15316	-0.008669	-0.046816	0.031938	-0.008669	0	0	0	-0.13041	0.029329	0.035679	-0.13273	0.032336	0.15527	-0.14501	-0.083464	0.043416
17	0.15019	-0.10253	-0.0044861	0.16209	-0.12505	-0.25652	0.18806	-0.13067	-0.2481	0.21971	-0.046816	-0.15316	-0.008669	-0.046816	0.031938	-0.008669	0	0	0	-0.13038	0.029375	0.035596	-0.13283	0.032292	0.1552	-0.14495	-0.083455	0.043234
18	0.15957	-0.1026	-0.0045274	0.16197	-0.12516	-0.25675	0.18807	-0.13091	-0.24828	0.21971	-0.046816	-0.15316	-0.008669	-0.046816	0.031938	-0.008669	0	0	0	-0.13034	0.029417	0.03551	-0.13293	0.032253	0.15512	-0.14489	-0.083448	0.043058
19	0.16896	-0.10268	-0.0045621	0.16184	-0.12527	-0.25695	0.18811	-0.13115	-0.24842	0.21975	-0.046816	-0.15316	-0.008669	-0.046816	0.031938	-0.008669	0	0	0	-0.13031	0.029456	0.035422	-0.13302	0.032218	0.15505	-0.14483	-0.083443	0.042887
20	0.17835	-0.10275	-0.0045899	0.16171	-0.12538	-0.25712	0.18819	-0.13139	-0.24852	0.21981	-0.046816	-0.15316	-0.008669	-0.046816	0.031938	-0.008669	0	0	0	-0.13027	0.02949	0.035333	-0.13312	0.032186	0.15497	-0.14476	-0.08344	0.042723
21	0.18773	-0.10282	-0.0046107	0.16159	-0.1255	-0.25725	0.18829	-0.13164	-0.24858	0.21991	-0.046816	-0.15316	-0.008669	-0.046816	0.031938	-0.008669	0	0	0	-0.13023	0.029521	0.035242	-0.13321	0.032159	0.15488	-0.14469	-0.083439	0.042565
22	0.19712	-0.10289	-0.0046244	0.16145	-0.12563	-0.25735	0.18844	-0.13189	-0.2486	0.22003	-0.046816	-0.15316	-0.008669	-0.046816	0.031938	-0.008669	0	0	0	-0.13019	0.029547	0.03515	-0.13331	0.032137	0.1548	-0.14461	-0.083441	0.042414
23	0.20651	-0.10296	-0.0046309	0.16132	-0.12576	-0.25741	0.18861	-0.13215	-0.24859	0.22018	-0.046816	-0.15316	-0.008669	-0.046816	0.031938	-0.008669	0	0	0	-0.13015	0.029569	0.035056	-0.1334	0.032118	0.15471	-0.14454	-0.083445	0.042269
24	0.21589	-0.10303	-0.0046301	0.16119	-0.12589	-0.25743	0.18882	-0.13241	-0.24853	0.22036	-0.046816	-0.15316	-0.008669	-0.046816	0.031938	-0.008669	0	0	0	-0.13011	0.029586	0.03496	-0.13349	0.032104	0.15461	-0.14445	-0.083452	0.042132
25	0.22528	-0.10309	-0.0046217	0.16105	-0.12602	-0.25742	0.18906	-0.13268	-0.24844	0.22056	-0.046816	-0.15316	-0.008669	-0.046816	0.031938	-0.008669	0	0	0	-0.13006	0.029599	0.034863	-0.13358	0.032095	0.15451	-0.14437	-0.083461	0.042002
26	0.23467	-0.10316	-0.0046058	0.16091	-0.12616	-0.25736	0.18934	-0.13295	-0.2483	0.2208	-0.046816	-0.15316	-0.008669	-0.046816	0.031938	-0.008669	0	0	0	-0.13001	0.029607	0.034765	-0.13367	0.032091	0.15441	-0.14428	-0.083472	0.041879
27	0.24406	-0.10322	-0.0045821	0.16078	-0.1263	-0.25727	0.18965	-0.13322	-0.24812	0.22106	-0.046816	-0.15316	-0.008669	-0.046816	0.031938	-0.008669	0	0	0	-0.12997	0.02961	0.034665	-0.13376	0.032091	0.15431	-0.14419	-0.083485	0.041765
28	0.25344	-0.10329	-0.0045505	0.16064	-0.12644	-0.25714	0.19	-0.1335	-0.2479	0.22136	-0.046816	-0.15316	-0.008669	-0.046816	0.031938	-0.008669	0	0	0	-0.12992	0.029609	0.034564	-0.13385	0.032096	0.15421	-0.14409	-0.083501	0.041658
29	0.26283	-0.10335	-0.0045109	0.16049	-0.12659	-0.25696	0.19038	-0.13378	-0.24764	0.22168	-0.046816	-0.15316	-0.008669	-0.046816	0.031938	-0.008669	0	0	0	-0.12987	0.029602	0.034461	-0.13393	0.032106	0.1541	-0.144	-0.08352	0.04156
30	0.27222	-0.10341	-0.0044632	0.16035	-0.12673	-0.25675	0.1908	-0.13407	-0.24733	0.22203	-0.046816	-0.15316	-0.008669	-0.046816	0.031938	-0.008669	0	0	0	-0.12982	0.029591	0.034358	-0.13402	0.032121	0.15398	-0.14389	-0.083541	0.04147
31	0.2816	-0.10346	-0.0044072	0.16021	-0.12689	-0.25649	0.19125	-0.13436	-0.24698	0.22242	-0.046816	-0.15316	-0.008669	-0.046816	0.031938	-0.008669	0	0	0	-0.12976	0.029574	0.034253	-0.1341	0.032142	0.15387	-0.14379	-0.083564	0.041389
32	0.29099	-0.10352	-0.0043428	0.16006	-0.12704	-0.25619	0.19173	-0.13465	-0.24658	0.22283	-0.046816	-0.15316	-0.008669	-0.046816	0.031938	-0.008669	0	0	0	-0.12971	0.029552	0.034148	-0.13418	0.032167	0.15375	-0.14368	-0.08359	0.041317
33	0.30038	-0.10357	-0.0042699	0.15991	-0.1272	-0.25584	0.19225	-0.13494	-0.24614	0.22327	-0.046816	-0.15316	-0.008669	-0.046816	0.031938	-0.008669	0	0	0	-0.12966	0.029525	0.034041	-0.13426	0.032198	0.15363	-0.14357	-0.083618	0.041255
34	0.30976	-0.10363	-0.0041883	0.15976	-0.12736	-0.25545	0.19281	-0.13524	-0.24564	0.22374	-0.046816	-0.15316	-0.008669	-0.046816	0.031938	-0.008669	0	0	0	-0.1296	0.029492	0.033933	-0.13434	0.032235	0.1535	-0.14346	-0.083648	0.041202
35	0.31915	-0.10368	-0.0040979	0.15961	-0.12752	-0.25502	0.1934	-0.13555	-0.24511	0.22424	-0.046816	-0.15316	-0.008669	-0.046816	0.031938	-0.008669	0	0	0	-0.12954	0.029454	0.033824	-0.13442	0.032277	0.15338	-0.14335	-0.083681	0.041158
36	0.32854	-0.10373	-0.0039986	0.15946	-0.12768	-0.25454	0.19403	-0.13585	-0.24452	0.22477	-0.046816	-0.15316	-0.008669	-0.046816	0.031938	-0.008669	0	0	0	-0.12948	0.02941	0.033715	-0.13449	0.032324	0.15325	-0.14323	-0.083717	0.041125
37	0.33792	-0.10377	-0.0038903	0.15931	-0.12785	-0.25401	0.19469	-0.13616	-0.24389	0.22533	-0.046816	-0.15316	-0.008669	-0.046816	0.031938	-0.008669	0	0	0	-0.12943	0.02936	0.033605	-0.13456	0.032378	0.15312	-0.14311	-0.083755	0.041102
38	0.34731	-0.10381	-0.0037728	0.15916	-0.12802	-0.25343	0.19539	-0.13647	-0.2432	0.22592	-0.046816	-0.15316	-0.008669	-0.046816	0.031938	-0.008669	0	0	0	-0.12937	0.029304	0.033494	-0.13463	0.032437	0.15298	-0.14298	-0.083796	0.041089
